# xmcd CD database file
#
# Track frame offsets:
#	182
#	5597
#	11115
#	20462
#	24830
#	32807
#	41312
#	47150
#	49942
#	56072
#	60950
#	65332
#	70970
#
# Disc length: 1024 seconds
#
# Revision: 0
# Processed by: cddbd v1.4PL0 Copyright (c) Steve Scherf et al.
# Submitted via: CDex 1.50
#
DISCID=a503fe0d
DTITLE=Fred Sokolow - Complete Jazz Guitar
DYEAR=1900
DGENRE=Jazz
TTITLE0=Satin Doll
TTITLE1=Rent Times
TTITLE2=Will You Wait For Me
TTITLE3=Busy Signal
TTITLE4=Makin' Whoopie
TTITLE5=Don't Get Around Much Anymore
TTITLE6=Cherokee
TTITLE7=Charlie's Blues
TTITLE8=Willow Weep For Me
TTITLE9=You Are So Beautiful
TTITLE10=Everything Must Change
TTITLE11=We've Only Just Begun
TTITLE12=Scale Exercises 1-7
EXTD=
EXTT0=
EXTT1=
EXTT2=
EXTT3=
EXTT4=
EXTT5=
EXTT6=
EXTT7=
EXTT8=
EXTT9=
EXTT10=
EXTT11=
EXTT12=
PLAYORDER=
